<svg id="图层_1" data-name="图层 1" xmlns="http://www.w3.org/2000/svg" viewBox="0 0 1000.25 1000.25"><defs><style>.cls-1{fill:#040000;stroke:#040000;stroke-miterlimit:1.14;stroke-width:0.25px;}.cls-2{fill:#fff;}.cls-3{fill:#c30d23;}</style></defs><path class="cls-1" d="M951.78,22.33l-41.94,42C690.12,284,333.88,284,114.16,64.28L72.22,22.33A35.28,35.28,0,0,0,22.33,72.22l42,41.94c219.72,219.72,219.72,576,0,795.68L22.33,951.78a35.28,35.28,0,0,0,49.89,49.89l41.94-41.95c219.72-219.72,576-219.72,795.68,0l41.94,41.95a35.28,35.28,0,0,0,49.89-49.89l-41.95-41.94c-219.72-219.72-219.72-576,0-795.68l41.95-41.94a35.28,35.28,0,0,0-49.89-49.89Z" transform="translate(-11.88 -11.87)"/><path class="cls-2" d="M314.22,378.52a28.61,28.61,0,0,0-28.6,28.6V616.87a28.61,28.61,0,0,0,57.21,0V407.12A28.61,28.61,0,0,0,314.22,378.52Z" transform="translate(-11.88 -11.87)"/><path class="cls-2" d="M476.3,407.12a28.6,28.6,0,0,0-57.2,0V518.65l-8.29-13a28.6,28.6,0,0,0-48.26,30.71l61,95.89.24.35.42.61c.4.59.83,1.16,1.27,1.7l.17.22c.55.66,1.12,1.29,1.72,1.89l.22.22a28,28,0,0,0,4,3.27l.32.21c.67.45,1.35.87,2.06,1.26l.14.08q1,.56,2.13,1l.69.29c.7.29,1.41.56,2.13.78.19.07.4.12.59.17.61.18,1.23.34,1.85.48.23.05.47.11.71.15.78.16,1.56.27,2.36.36l.52.05c.88.08,1.76.14,2.65.14s1.77-.06,2.65-.14l.51-.05c.81-.1,1.62-.21,2.43-.37l.18,0c.83-.17,1.64-.38,2.46-.63l.67-.22c.58-.19,1.15-.4,1.72-.63.25-.1.5-.19.74-.3.73-.32,1.45-.66,2.16-1,.17-.09.34-.2.51-.3.44-.24.87-.49,1.29-.76l.27-.18c.47-.31.92-.65,1.37-1s.67-.48,1-.73.68-.59,1-.9.76-.66,1.12-1,.46-.5.7-.75c.4-.43.81-.86,1.19-1.31.19-.23.36-.47.54-.7.38-.49.77-1,1.11-1.49.21-.31.39-.63.59-1s.57-.9.83-1.37.47-.94.7-1.41.34-.68.49-1c.24-.56.45-1.14.66-1.72.1-.28.21-.56.3-.85.18-.55.32-1.13.47-1.7.08-.33.18-.66.26-1s.17-1,.25-1.48.16-.89.21-1.35.06-.81.09-1.21c0-.56.08-1.12.08-1.69,0-.11,0-.21,0-.32Z" transform="translate(-11.88 -11.87)"/><path class="cls-3" d="M684.9,437a28,28,0,1,0-28-28A28,28,0,0,0,684.9,437Z" transform="translate(-11.88 -11.87)"/><path class="cls-2" d="M659.14,484.5h-.35l-73.44.93A24.24,24.24,0,0,1,585.5,437h35.66c.37,0,.73.06,1.1.06a28,28,0,1,0,0-55.93V381H585.5a80.17,80.17,0,0,0,0,160.34h.35l73.43-.93a23.31,23.31,0,0,1-.14,46.61H622.26a28,28,0,0,0,0,55.93h36.88a79.24,79.24,0,1,0,0-158.47Z" transform="translate(-11.88 -11.87)"/><path class="cls-3" d="M559.88,643a28,28,0,1,0-28-28A28,28,0,0,0,559.88,643Z" transform="translate(-11.88 -11.87)"/></svg>