<svg id="Layer_1" data-name="Layer 1" xmlns="http://www.w3.org/2000/svg" viewBox="0 0 66.7 16.04"><defs><style>.cls-1{fill:#fff;}.cls-2{fill:#231815;}.cls-3{fill:#c30d23;}</style></defs><path class="cls-1" d="M17.33,5.17l-.67.67a9,9,0,0,1-12.73,0l-.67-.67a.56.56,0,1,0-.8.79l.67.67a9,9,0,0,1,0,12.74L2.46,20a.56.56,0,0,0,.8.79l.67-.67a9,9,0,0,1,12.73,0l.67.67a.56.56,0,0,0,.8-.79l-.67-.67a9,9,0,0,1,0-12.74L18.13,6a.56.56,0,0,0-.8-.79Z" transform="translate(-2.3 -5)"/><path class="cls-2" d="M7.13,10.86a.47.47,0,0,0-.46.46v3.36a.46.46,0,1,0,.92,0V11.32A.47.47,0,0,0,7.13,10.86Z" transform="translate(-2.3 -5)"/><path class="cls-2" d="M9.72,11.32a.46.46,0,1,0-.91,0v1.79l-.13-.21a.45.45,0,0,0-.63-.14.46.46,0,0,0-.15.63l1,1.53h0l0,0h0l0,0H9l.06.06H9l0,0h0l0,0h.37l0,0h0l0,0h0v0h0l0,0h0l0,0h0l0,0v0l0,0v-.07h0v-.14h0Z" transform="translate(-2.3 -5)"/><path class="cls-3" d="M13.06,11.8a.45.45,0,0,0,0-.9.45.45,0,0,0,0,.9Z" transform="translate(-2.3 -5)"/><path class="cls-2" d="M12.65,12.56H11.47a.39.39,0,1,1,0-.77h.59a.45.45,0,1,0,0-.89h-.59a1.29,1.29,0,0,0,0,2.57h0l1.17,0a.38.38,0,0,1,.37.38.37.37,0,0,1-.37.37h-.59a.45.45,0,0,0,0,.9h.59a1.27,1.27,0,0,0,0-2.54Z" transform="translate(-2.3 -5)"/><path class="cls-3" d="M11.06,15.1a.45.45,0,1,0-.45-.45A.45.45,0,0,0,11.06,15.1Z" transform="translate(-2.3 -5)"/><path class="cls-1" d="M22.8,13.44a.86.86,0,0,1-.69.05.66.66,0,0,1-.3-.44.44.44,0,0,1,.14-.52,2.41,2.41,0,0,1,.53-.28,14.53,14.53,0,0,0,2.93-1.46A8,8,0,0,0,27.33,9H22.66a.56.56,0,0,1-.46-.17.68.68,0,0,1-.14-.44A.6.6,0,0,1,22.2,8a.59.59,0,0,1,.46-.15h5.39a5.85,5.85,0,0,0,.41-1.18A1.59,1.59,0,0,1,28.73,6a.58.58,0,0,1,.49-.2c.48,0,.65.32.52,1,0,.19-.1.37-.16.56a3.24,3.24,0,0,1-.19.52h6.82c.45,0,.67.2.67.58a.6.6,0,0,1-.17.44.72.72,0,0,1-.5.17H31.54a12.9,12.9,0,0,0,2.38,2,11.19,11.19,0,0,0,2.45,1.16,1.55,1.55,0,0,1,.65.37.54.54,0,0,1,.07.49.47.47,0,0,1-.36.4,1.48,1.48,0,0,1-.7-.06,10.14,10.14,0,0,1-3-1.59A19.46,19.46,0,0,1,30,9H28.83a7.88,7.88,0,0,1-2.25,2.45,16.13,16.13,0,0,1-3.8,1.95Zm3.84,2.93a.47.47,0,0,1,.22.44,1.23,1.23,0,0,1-.38.69A18.64,18.64,0,0,1,25,19a14.17,14.17,0,0,1-1.64,1.2,1.19,1.19,0,0,1-.68.26.49.49,0,0,1-.39-.29.62.62,0,0,1-.09-.49c0-.14.23-.31.57-.5a10.19,10.19,0,0,0,1.43-1,17.4,17.4,0,0,0,1.34-1.36,1.45,1.45,0,0,1,.6-.52A.53.53,0,0,1,26.64,16.37ZM23,15.65a.55.55,0,0,1-.46-.19.72.72,0,0,1-.15-.47.6.6,0,0,1,.15-.4.55.55,0,0,1,.46-.18h13a.54.54,0,0,1,.46.2.62.62,0,0,1,.14.41.67.67,0,0,1-.14.46.59.59,0,0,1-.46.17H30.1V20.4c0,.43-.2.64-.6.64s-.67-.21-.67-.64V15.65Zm10.18-3.11A.64.64,0,0,1,33,13a.68.68,0,0,1-.49.17H26.38a.59.59,0,0,1-.46-.17.67.67,0,0,1-.14-.46.54.54,0,0,1,.6-.61h6.13C33,11.93,33.17,12.14,33.17,12.54Zm2.7,6.74c.4.41.46.77.19,1.07a.6.6,0,0,1-.47.22q-.26,0-.66-.48c-.4-.44-.8-.88-1.22-1.31s-.85-.83-1.29-1.23A1.25,1.25,0,0,1,32,17a.52.52,0,0,1,.16-.51.61.61,0,0,1,.48-.23,1.08,1.08,0,0,1,.61.39c.48.46.94.91,1.38,1.36S35.47,18.87,35.87,19.28Z" transform="translate(-2.3 -5)"/><path class="cls-1" d="M40.88,16.37c-.11.31-.23.63-.38,1s-.29.67-.44,1-.31.63-.48.92a6.89,6.89,0,0,1-.46.76c-.31.44-.64.54-1,.29s-.33-.57,0-1a7,7,0,0,0,.42-.68c.15-.27.3-.56.44-.85s.28-.61.41-.92.23-.59.32-.84a1.05,1.05,0,0,1,.32-.55.59.59,0,0,1,.53,0C41,15.52,41.07,15.84,40.88,16.37ZM51,13a1.26,1.26,0,0,1-.28.94,1.43,1.43,0,0,1-1,.27H41.23a1.46,1.46,0,0,1-1-.27A1.3,1.3,0,0,1,40,13V7.9a1.11,1.11,0,0,1,.28-.85,1.51,1.51,0,0,1,1-.25H49.7a1.56,1.56,0,0,1,1,.25A1.07,1.07,0,0,1,51,7.9ZM44.88,8H41.36c-.14,0-.21.09-.21.26V9.92h3.73Zm0,3.11H41.15V12.8q0,.27.21.27h3.52Zm5.2,6.73A7.36,7.36,0,0,1,50,19.2a2,2,0,0,1-.35.84,1.29,1.29,0,0,1-.61.44,4.83,4.83,0,0,1-.92.18l-1,0-1.13,0q-.57,0-1.11,0l-1-.05a4.76,4.76,0,0,1-.92-.15,1.25,1.25,0,0,1-.56-.33,1.18,1.18,0,0,1-.29-.58,4.3,4.3,0,0,1-.08-.89v-3c0-.49.2-.74.61-.74a.61.61,0,0,1,.45.17.79.79,0,0,1,.17.57v3.1a.68.68,0,0,0,.14.46.89.89,0,0,0,.6.2l1,.07c.37,0,.73,0,1.09,0h1a7.66,7.66,0,0,0,.81-.07,1.91,1.91,0,0,0,.5-.1.61.61,0,0,0,.3-.25,1.38,1.38,0,0,0,.13-.49c0-.21,0-.48,0-.82a1.1,1.1,0,0,1,.12-.57.51.51,0,0,1,.47-.2.61.61,0,0,1,.52.19A1,1,0,0,1,50.08,17.82Zm-2.48-.43c.22.41.17.71-.18.91s-.68.09-.92-.37l-.31-.53c-.13-.22-.26-.45-.41-.69l-.44-.7c-.15-.23-.27-.43-.38-.59-.3-.43-.26-.76.11-1a.71.71,0,0,1,.46-.11.75.75,0,0,1,.41.35c.27.41.56.86.86,1.35S47.37,17,47.6,17.39Zm2.19-9.15c0-.17-.07-.26-.21-.26H46.1V9.92h3.69Zm0,2.85H46.1v2h3.48q.21,0,.21-.27Zm3.12,8a1.11,1.11,0,0,1,.12.62c0,.16-.14.28-.36.37-.41.17-.71,0-.89-.48s-.43-1.06-.7-1.61-.55-1.06-.84-1.53-.32-.87,0-1.05a.68.68,0,0,1,.55-.12.91.91,0,0,1,.44.44c.29.47.59,1,.89,1.61S52.69,18.47,52.91,19Z" transform="translate(-2.3 -5)"/><path class="cls-1" d="M54.5,13.07a.77.77,0,0,1-.52-.14.62.62,0,0,1-.14-.45A.68.68,0,0,1,54,12a.77.77,0,0,1,.52-.14H68.34a.76.76,0,0,1,.51.14.68.68,0,0,1,.14.47.62.62,0,0,1-.14.45.76.76,0,0,1-.51.14H61c-.41.62-.8,1.18-1.17,1.7s-.73,1-1.08,1.43-.7.86-1.05,1.27-.71.81-1.08,1.22c-.19.21-.13.31.19.28l9.31-.46q-.51-.75-1.08-1.53L64,15.53a1.18,1.18,0,0,1-.25-.52.59.59,0,0,1,.22-.44c.31-.31.67-.2,1.09.32l.9,1.21c.31.42.6.85.89,1.27s.56.83.82,1.23.48.77.67,1.11a.93.93,0,0,1,.15.67.62.62,0,0,1-.34.39.5.5,0,0,1-.46,0,1.21,1.21,0,0,1-.44-.54L67.06,20a3.24,3.24,0,0,0-.2-.33l-10.44.56A2.35,2.35,0,0,1,55.19,20a.7.7,0,0,1-.37-.64,1,1,0,0,1,.14-.52,3.52,3.52,0,0,1,.4-.57c.76-.85,1.47-1.69,2.14-2.5s1.35-1.72,2-2.7ZM67.78,7.81a.62.62,0,0,1-.15.46.65.65,0,0,1-.49.14H55.76a.7.7,0,0,1-.5-.14.67.67,0,0,1-.14-.46.72.72,0,0,1,.14-.48.7.7,0,0,1,.5-.15H67.14a.65.65,0,0,1,.49.15A.67.67,0,0,1,67.78,7.81Z" transform="translate(-2.3 -5)"/></svg>